<svg xmlns="http://www.w3.org/2000/svg" xmlns:xlink="http://www.w3.org/1999/xlink" version="1.1" width="256" height="256" viewBox="0 0 256 256" xml:space="preserve">
<desc>Created with Fabric.js 1.7.22</desc>
<defs>
</defs>
<g transform="translate(128 128) scale(0.72 0.72)" style="">
	<g style="stroke: none; stroke-width: 0; stroke-dasharray: none; stroke-linecap: butt; stroke-linejoin: miter; stroke-miterlimit: 10; fill: none; fill-rule: nonzero; opacity: 1;" transform="translate(-175.05 -175.05000000000004) scale(3.89 3.89)" >
	<path d="M 63.661 17.625 H 48.816 c -1.104 0 -2 -0.896 -2 -2 s 0.896 -2 2 -2 h 14.845 c 1.104 0 2 0.896 2 2 S 64.766 17.625 63.661 17.625 z" style="stroke: none; stroke-width: 1; stroke-dasharray: none; stroke-linecap: butt; stroke-linejoin: miter; stroke-miterlimit: 10; fill: rgb(0,0,0); fill-rule: nonzero; opacity: 1;" transform=" matrix(1 0 0 1 0 0) " stroke-linecap="round" />
	<path d="M 41.184 17.625 H 26.339 c -1.104 0 -2 -0.896 -2 -2 s 0.896 -2 2 -2 h 14.844 c 1.104 0 2 0.896 2 2 S 42.288 17.625 41.184 17.625 z" style="stroke: none; stroke-width: 1; stroke-dasharray: none; stroke-linecap: butt; stroke-linejoin: miter; stroke-miterlimit: 10; fill: rgb(0,0,0); fill-rule: nonzero; opacity: 1;" transform=" matrix(1 0 0 1 0 0) " stroke-linecap="round" />
	<path d="M 83.247 83.999 H 6.753 C 3.029 83.999 0 80.97 0 77.246 V 20.378 c 0 -3.724 3.029 -6.753 6.753 -6.753 h 11.953 c 1.104 0 2 0.896 2 2 s -0.896 2 -2 2 H 6.753 C 5.235 17.625 4 18.86 4 20.378 v 56.868 c 0 1.518 1.235 2.753 2.753 2.753 h 76.494 c 1.518 0 2.753 -1.235 2.753 -2.753 V 20.378 c 0 -1.518 -1.235 -2.753 -2.753 -2.753 H 71.294 c -1.104 0 -2 -0.896 -2 -2 s 0.896 -2 2 -2 h 11.953 c 3.724 0 6.753 3.029 6.753 6.753 v 56.868 C 90 80.97 86.971 83.999 83.247 83.999 z" style="stroke: none; stroke-width: 1; stroke-dasharray: none; stroke-linecap: butt; stroke-linejoin: miter; stroke-miterlimit: 10; fill: rgb(0,0,0); fill-rule: nonzero; opacity: 1;" transform=" matrix(1 0 0 1 0 0) " stroke-linecap="round" />
	<path d="M 22.81 52.133 h -8.392 c -1.973 0 -3.579 -1.605 -3.579 -3.579 v -8.392 c 0 -1.973 1.605 -3.579 3.579 -3.579 h 8.392 c 1.973 0 3.579 1.605 3.579 3.579 v 8.392 C 26.388 50.527 24.783 52.133 22.81 52.133 z M 14.839 48.133 h 7.549 v -7.549 h -7.549 V 48.133 z" style="stroke: none; stroke-width: 1; stroke-dasharray: none; stroke-linecap: butt; stroke-linejoin: miter; stroke-miterlimit: 10; fill: rgb(0,0,0); fill-rule: nonzero; opacity: 1;" transform=" matrix(1 0 0 1 0 0) " stroke-linecap="round" />
	<path d="M 49.196 52.133 h -8.392 c -1.973 0 -3.579 -1.605 -3.579 -3.579 v -8.392 c 0 -1.973 1.605 -3.579 3.579 -3.579 h 8.392 c 1.973 0 3.578 1.605 3.578 3.579 v 8.392 C 52.774 50.527 51.169 52.133 49.196 52.133 z M 41.226 48.133 h 7.549 v -7.549 h -7.549 V 48.133 z" style="stroke: none; stroke-width: 1; stroke-dasharray: none; stroke-linecap: butt; stroke-linejoin: miter; stroke-miterlimit: 10; fill: rgb(0,0,0); fill-rule: nonzero; opacity: 1;" transform=" matrix(1 0 0 1 0 0) " stroke-linecap="round" />
	<path d="M 75.582 52.133 H 67.19 c -1.973 0 -3.578 -1.605 -3.578 -3.579 v -8.392 c 0 -1.973 1.605 -3.579 3.578 -3.579 h 8.392 c 1.974 0 3.579 1.605 3.579 3.579 v 8.392 C 79.161 50.527 77.556 52.133 75.582 52.133 z M 67.612 48.133 h 7.549 v -7.549 h -7.549 V 48.133 z" style="stroke: none; stroke-width: 1; stroke-dasharray: none; stroke-linecap: butt; stroke-linejoin: miter; stroke-miterlimit: 10; fill: rgb(0,0,0); fill-rule: nonzero; opacity: 1;" transform=" matrix(1 0 0 1 0 0) " stroke-linecap="round" />
	<path d="M 22.81 74.609 h -8.392 c -1.973 0 -3.579 -1.605 -3.579 -3.578 V 62.64 c 0 -1.974 1.605 -3.579 3.579 -3.579 h 8.392 c 1.973 0 3.579 1.605 3.579 3.579 v 8.392 C 26.388 73.004 24.783 74.609 22.81 74.609 z M 14.839 70.609 h 7.549 v -7.549 h -7.549 V 70.609 z" style="stroke: none; stroke-width: 1; stroke-dasharray: none; stroke-linecap: butt; stroke-linejoin: miter; stroke-miterlimit: 10; fill: rgb(0,0,0); fill-rule: nonzero; opacity: 1;" transform=" matrix(1 0 0 1 0 0) " stroke-linecap="round" />
	<path d="M 75.582 74.609 H 67.19 c -1.973 0 -3.578 -1.605 -3.578 -3.578 V 62.64 c 0 -1.974 1.605 -3.579 3.578 -3.579 h 8.392 c 1.974 0 3.579 1.605 3.579 3.579 v 8.392 C 79.161 73.004 77.556 74.609 75.582 74.609 z M 67.612 70.609 h 7.549 v -7.549 h -7.549 V 70.609 z" style="stroke: none; stroke-width: 1; stroke-dasharray: none; stroke-linecap: butt; stroke-linejoin: miter; stroke-miterlimit: 10; fill: rgb(0,0,0); fill-rule: nonzero; opacity: 1;" transform=" matrix(1 0 0 1 0 0) " stroke-linecap="round" />
	<path d="M 88 31.472 H 2 c -1.104 0 -2 -0.896 -2 -2 s 0.896 -2 2 -2 h 86 c 1.104 0 2 0.896 2 2 S 89.104 31.472 88 31.472 z" style="stroke: none; stroke-width: 1; stroke-dasharray: none; stroke-linecap: butt; stroke-linejoin: miter; stroke-miterlimit: 10; fill: rgb(0,0,0); fill-rule: nonzero; opacity: 1;" transform=" matrix(1 0 0 1 0 0) " stroke-linecap="round" />
	<path d="M 44.355 74.609 c -0.528 0 -1.037 -0.209 -1.414 -0.586 l -4.149 -4.148 c -0.781 -0.78 -0.781 -2.047 0 -2.828 c 0.781 -0.781 2.047 -0.781 2.829 0 l 2.459 2.458 l 4.409 -6.336 c 0.631 -0.907 1.876 -1.13 2.784 -0.499 c 0.906 0.631 1.13 1.877 0.499 2.784 l -5.774 8.298 c -0.338 0.486 -0.875 0.797 -1.464 0.85 C 44.474 74.606 44.414 74.609 44.355 74.609 z" style="stroke: none; stroke-width: 1; stroke-dasharray: none; stroke-linecap: butt; stroke-linejoin: miter; stroke-miterlimit: 10; fill: rgb(0,0,0); fill-rule: nonzero; opacity: 1;" transform=" matrix(1 0 0 1 0 0) " stroke-linecap="round" />
	<path d="M 46.999 25.249 h -3.998 c -2.105 0 -3.818 -1.713 -3.818 -3.818 V 9.819 c 0 -2.105 1.713 -3.818 3.818 -3.818 h 3.998 c 2.104 0 3.817 1.713 3.817 3.818 v 11.611 C 50.816 23.536 49.104 25.249 46.999 25.249 z M 43.184 21.249 h 3.633 V 10.001 h -3.633 V 21.249 z" style="stroke: none; stroke-width: 1; stroke-dasharray: none; stroke-linecap: butt; stroke-linejoin: miter; stroke-miterlimit: 10; fill: rgb(0,0,0); fill-rule: nonzero; opacity: 1;" transform=" matrix(1 0 0 1 0 0) " stroke-linecap="round" />
	<path d="M 69.476 25.249 h -3.997 c -2.104 0 -3.817 -1.713 -3.817 -3.818 V 9.819 c 0 -2.105 1.713 -3.818 3.817 -3.818 h 3.997 c 2.105 0 3.818 1.713 3.818 3.818 v 11.611 C 73.294 23.536 71.581 25.249 69.476 25.249 z M 65.661 21.249 h 3.633 V 10.001 h -3.633 V 21.249 z" style="stroke: none; stroke-width: 1; stroke-dasharray: none; stroke-linecap: butt; stroke-linejoin: miter; stroke-miterlimit: 10; fill: rgb(0,0,0); fill-rule: nonzero; opacity: 1;" transform=" matrix(1 0 0 1 0 0) " stroke-linecap="round" />
	<path d="M 24.521 25.249 h -3.997 c -2.105 0 -3.818 -1.713 -3.818 -3.818 V 9.819 c 0 -2.105 1.713 -3.818 3.818 -3.818 h 3.997 c 2.105 0 3.818 1.713 3.818 3.818 v 11.611 C 28.339 23.536 26.626 25.249 24.521 25.249 z M 20.706 21.249 h 3.633 V 10.001 h -3.633 V 21.249 z" style="stroke: none; stroke-width: 1; stroke-dasharray: none; stroke-linecap: butt; stroke-linejoin: miter; stroke-miterlimit: 10; fill: rgb(0,0,0); fill-rule: nonzero; opacity: 1;" transform=" matrix(1 0 0 1 0 0) " stroke-linecap="round" />
</g>
</g>
</svg>