<?xml version="1.0" encoding="iso-8859-1"?>
<!-- Generator: Adobe Illustrator 19.0.0, SVG Export Plug-In . SVG Version: 6.00 Build 0)  -->
<svg version="1.1" id="Layer_1" xmlns="http://www.w3.org/2000/svg" xmlns:xlink="http://www.w3.org/1999/xlink" x="0px" y="0px"
	 viewBox="0 0 512 512" style="enable-background:new 0 0 512 512;" xml:space="preserve">
<circle style="fill:#88C5CC;" cx="256" cy="256" r="256"/>
<path style="fill:#CC584C;" d="M378.256,316.116c-14.82-4.612-21.252-23.04-21.252-76.116c0-64.496-46.852-116-105.012-116
	s-105.004,51.504-105.004,116c0,53.08-6.424,71.504-21.248,76.116C116.916,318.872,112,325.812,112,336c0,16.592,0,40,0,40h140h140
	c0,0,0-23.408,0-40C392,325.812,387.084,318.872,378.256,316.116z"/>
<path style="fill:#E6685C;" d="M125.744,316c-8.828,4-13.744,9.812-13.744,20c0,16.592,0,40,0,40h140h140c0,0,0-23.408,0-40
	c0-10.188-4.916-16-13.744-20H125.744z"/>
<path style="fill:#BF5347;" d="M378.256,316.116c-14.82-4.612-21.252-23.04-21.252-76.116c0-64.496-46.852-116-105.012-116
	c-2.696,0-5.356,0.148-8,0.364c54.4,4.472,97.02,54.128,97.02,115.636c0,53.08,6.424,71.504,21.248,76.116
	C371.084,318.872,376,325.812,376,336c0,16.592,0,40,0,40h16c0,0,0-23.408,0-40C392,325.812,387.084,318.872,378.256,316.116z"/>
<path style="fill:#994239;" d="M292,376c0,22.752-16.548,40-40,40c-23.456,0-40-17.252-40-40H292z"/>
<path style="fill:#8C3D34;" d="M284,376c0,21.436-14.688,37.968-36,39.816c1.312,0.112,2.64,0.184,4,0.184c23.452,0,40-17.252,40-40
	H284z"/>
<g>
	<path style="fill:#FFD464;" d="M147.536,228c-0.244,2.636-0.376,5.312-0.456,8h209.84c-0.084-2.688-0.22-5.364-0.452-8H147.536z"/>
	<path style="fill:#FFD464;" d="M357.584,264c-0.132-2.556-0.252-5.22-0.328-8H146.744c-0.084,2.78-0.2,5.444-0.336,8H357.584z"/>
</g>
<circle style="fill:#BF5347;" cx="248" cy="108" r="20"/>
<path style="fill:#B34E42;" d="M248,88c-1.372,0-2.708,0.14-4,0.404c9.128,1.852,16,9.92,16,19.596s-6.872,17.744-16,19.596
	c1.292,0.26,2.628,0.404,4,0.404c11.048,0,20-8.956,20-20S259.048,88,248,88z"/>
<g>
</g>
<g>
</g>
<g>
</g>
<g>
</g>
<g>
</g>
<g>
</g>
<g>
</g>
<g>
</g>
<g>
</g>
<g>
</g>
<g>
</g>
<g>
</g>
<g>
</g>
<g>
</g>
<g>
</g>
</svg>
