<?xml version="1.0" encoding="iso-8859-1"?>
<!-- Generator: Adobe Illustrator 19.0.0, SVG Export Plug-In . SVG Version: 6.00 Build 0)  -->
<svg version="1.1" id="Layer_1" xmlns="http://www.w3.org/2000/svg" xmlns:xlink="http://www.w3.org/1999/xlink" x="0px" y="0px"
	 viewBox="0 0 512 512" style="enable-background:new 0 0 512 512;" xml:space="preserve">
<polygon style="fill:#F4A026;" points="20.677,256 188.13,383.348 175.002,294.072 371.856,294.072 371.856,215.303 
	175.002,215.303 188.13,128.652 "/>
<path style="fill:#61ACD2;" d="M121.108,446.359H438.81V65.641H121.108V13.128h344.027c14.501,0,26.188,11.755,26.188,26.256
	v433.231c0,14.501-11.687,26.256-26.188,26.256H121.108V446.359z"/>
<path d="M188.131,396.476c2.299,0,4.607-0.603,6.673-1.824c4.595-2.712,7.091-7.936,6.315-13.215L190.201,307.2h182.311
	c7.249,0,12.472-5.879,12.472-13.128v-78.769c0-7.249-5.222-13.128-12.472-13.128H190.268l10.841-71.555
	c0.801-5.285-1.683-10.53-6.281-13.258c-4.597-2.725-10.39-2.395-14.646,0.842L12.729,245.55c-3.264,2.484-5.18,6.349-5.18,10.45
	c0,4.101,1.917,7.966,5.18,10.45l167.453,127.348C182.519,395.574,185.319,396.476,188.131,396.476z M162.013,295.982l8.447,57.433
	L42.365,256l127.933-97.293l-8.276,54.629c-0.574,3.782,0.53,7.626,3.026,10.526c2.493,2.901,6.128,4.569,9.954,4.569h183.727
	v52.513H175.002c-3.815,0-7.441,1.661-9.935,4.548C162.572,288.378,161.457,292.208,162.013,295.982z"/>
<path d="M465.135,0H121.764c-7.249,0-13.785,5.879-13.785,13.128v52.513c0,7.249,6.535,13.128,13.785,13.128h303.918v354.462
	H121.764c-7.249,0-13.785,5.879-13.785,13.128v52.513c0,7.249,6.535,13.128,13.785,13.128h343.371
	c22.041,0,39.316-17.668,39.316-39.385V39.385C504.451,17.668,487.176,0,465.135,0z M478.195,472.615
	c0,7.117-5.625,13.128-13.06,13.128H134.236v-26.256h305.231c7.249,0,12.472-5.879,12.472-13.128V65.641
	c0-7.249-5.222-13.128-12.472-13.128H134.236V26.256h330.899c7.435,0,13.06,6.011,13.06,13.128V472.615z"/>
<g>
</g>
<g>
</g>
<g>
</g>
<g>
</g>
<g>
</g>
<g>
</g>
<g>
</g>
<g>
</g>
<g>
</g>
<g>
</g>
<g>
</g>
<g>
</g>
<g>
</g>
<g>
</g>
<g>
</g>
</svg>
