<?xml version="1.0" encoding="iso-8859-1"?>
<!-- Generator: Adobe Illustrator 18.0.0, SVG Export Plug-In . SVG Version: 6.00 Build 0)  -->
<!DOCTYPE svg PUBLIC "-//W3C//DTD SVG 1.1//EN" "http://www.w3.org/Graphics/SVG/1.1/DTD/svg11.dtd">
<svg version="1.1" id="Capa_1" xmlns="http://www.w3.org/2000/svg" xmlns:xlink="http://www.w3.org/1999/xlink" x="0px" y="0px"
	 viewBox="0 0 297.5 297.5" style="enable-background:new 0 0 297.5 297.5;" xml:space="preserve">
<g id="XMLID_25_">
	<g>
		<path style="fill:#F47CC3;" d="M210.72,109.18v63.62h-13.6V80.41C205.66,87.37,210.72,97.82,210.72,109.18z"/>
		<path style="fill:#8E44AD;" d="M276.34,148.75c0,53.24-32.78,98.96-79.22,118.05v-73.08h24.05c5.78,0,10.46-4.68,10.46-10.46
			v-74.08c0-22.15-12.31-42.07-32.12-51.98l-8.17-4.08c-3.24-1.62-7.09-1.45-10.18,0.46c-3.08,1.9-4.96,5.27-4.96,8.89v210.88
			c-8.84,1.95-18.02,2.98-27.45,2.98c-12.91,0-25.37-1.93-37.12-5.51V162.29h0.65c16.36,0,29.68-13.32,29.68-29.68v-56.6
			c0-5.78-4.69-10.46-10.46-10.46c-5.78,0-10.46,4.68-10.46,10.46v56.6c0,4.83-3.93,8.76-8.76,8.76h-0.65V76.01
			c0-5.78-4.68-10.46-10.46-10.46c-5.77,0-10.46,4.68-10.46,10.46v65.36h-0.64c-4.84,0-8.77-3.93-8.77-8.76v-56.6
			c0-5.78-4.68-10.46-10.46-10.46c-5.77,0-10.45,4.68-10.45,10.46v56.6c0,16.36,13.31,29.68,29.68,29.68h0.64v100.06
			c-41.25-21.16-69.54-64.14-69.54-113.6c0-70.35,57.23-127.58,127.58-127.58S276.34,78.4,276.34,148.75z"/>
		<path d="M148.75,0.25c81.89,0,148.5,66.62,148.5,148.5s-66.61,148.5-148.5,148.5c-81.88,0-148.5-66.62-148.5-148.5
			S66.87,0.25,148.75,0.25z M197.12,266.8c46.44-19.09,79.22-64.81,79.22-118.05c0-70.35-57.24-127.58-127.59-127.58
			S21.17,78.4,21.17,148.75c0,49.46,28.29,92.44,69.54,113.6V162.29h-0.64c-16.37,0-29.68-13.32-29.68-29.68v-56.6
			c0-5.78,4.68-10.46,10.45-10.46c5.78,0,10.46,4.68,10.46,10.46v56.6c0,4.83,3.93,8.76,8.77,8.76h0.64V76.01
			c0-5.78,4.69-10.46,10.46-10.46c5.78,0,10.46,4.68,10.46,10.46v65.36h0.65c4.83,0,8.76-3.93,8.76-8.76v-56.6
			c0-5.78,4.68-10.46,10.46-10.46c5.77,0,10.46,4.68,10.46,10.46v56.6c0,16.36-13.32,29.68-29.68,29.68h-0.65v108.53
			c11.75,3.58,24.21,5.51,37.12,5.51c9.43,0,18.61-1.03,27.45-2.98V62.47c0-3.62,1.88-6.99,4.96-8.89
			c3.09-1.91,6.94-2.08,10.18-0.46l8.17,4.08c19.81,9.91,32.12,29.83,32.12,51.98v74.08c0,5.78-4.68,10.46-10.46,10.46h-24.05V266.8
			z M210.72,172.8v-63.62c0-11.36-5.06-21.81-13.6-28.77v92.39H210.72z"/>
	</g>
	<g>
	</g>
</g>
<g>
</g>
<g>
</g>
<g>
</g>
<g>
</g>
<g>
</g>
<g>
</g>
<g>
</g>
<g>
</g>
<g>
</g>
<g>
</g>
<g>
</g>
<g>
</g>
<g>
</g>
<g>
</g>
<g>
</g>
</svg>
