<?xml version="1.0" encoding="iso-8859-1"?>
<!-- Generator: Adobe Illustrator 19.0.0, SVG Export Plug-In . SVG Version: 6.00 Build 0)  -->
<svg version="1.1" id="Layer_1" xmlns="http://www.w3.org/2000/svg" xmlns:xlink="http://www.w3.org/1999/xlink" x="0px" y="0px"
	 viewBox="0 0 512 512" style="enable-background:new 0 0 512 512;" xml:space="preserve">
<g transform="translate(1)">
	<g>
		<path style="fill:#FFE100;" d="M25.034,295.051L25.034,295.051c-9.546,0-17.356-7.81-17.356-17.356V34.712
			c0-9.546,7.81-17.356,17.356-17.356s17.356,7.81,17.356,17.356v242.983C42.39,287.241,34.58,295.051,25.034,295.051"/>
		<path style="fill:#FFE100;" d="M372.153,104.136c0,24.298-19.092,43.39-43.39,43.39c-24.298,0-43.39-19.092-43.39-43.39
			s19.092-43.39,43.39-43.39C353.061,60.746,372.153,79.837,372.153,104.136"/>
		<path style="fill:#FFE100;" d="M328.763,60.746H42.39v34.712h243.851C290.58,75.498,307.936,60.746,328.763,60.746"/>
		<path style="fill:#FFE100;" d="M502.322,321.085c0,95.458-78.102,173.559-173.559,173.559s-173.559-78.102-173.559-173.559
			s78.102-173.559,173.559-173.559S502.322,225.627,502.322,321.085"/>
	</g>
	<path style="fill:#FFA800;" d="M328.763,147.525c-4.339,0-8.678,0-13.017,0.868c89.383,6.075,160.542,81.573,160.542,172.692
		s-71.159,166.617-160.542,172.692c4.339,0,8.678,0.868,13.017,0.868c95.458,0,173.559-78.102,173.559-173.559
		S424.22,147.525,328.763,147.525"/>
	<path style="fill:#FFFFFF;" d="M324.424,147.525c4.339,0,8.678,0,13.017,0.868c-89.383,6.075-160.542,81.573-160.542,172.692
		s71.159,166.617,160.542,172.692c-4.339,0-8.678,0.868-13.017,0.868c-95.458,0-173.559-78.102-173.559-173.559
		S228.966,147.525,324.424,147.525"/>
	<g>
		<path style="fill:#00DA6C;" d="M285.373,425.22L285.373,425.22c-9.546,0-17.356-7.81-17.356-17.356v-52.068
			c0-9.546,7.81-17.356,17.356-17.356c9.546,0,17.356,7.81,17.356,17.356v52.068C302.729,417.41,294.919,425.22,285.373,425.22"/>
		<path style="fill:#00DA6C;" d="M389.508,425.22L389.508,425.22c-9.546,0-17.356-7.81-17.356-17.356v-52.068
			c0-9.546,7.81-17.356,17.356-17.356s17.356,7.81,17.356,17.356v52.068C406.864,417.41,399.054,425.22,389.508,425.22"/>
		<path style="fill:#00DA6C;" d="M372.153,225.627v121.492h2.603c2.603-5.207,8.678-8.678,14.753-8.678s12.149,3.471,14.753,8.678
			h2.603v-86.78C406.864,241.247,391.244,225.627,372.153,225.627"/>
	</g>
	<path d="M25.034,303.729C10.281,303.729-1,292.447-1,277.695V34.712C-1,19.959,10.281,8.678,25.034,8.678
		s26.034,11.281,26.034,26.034v242.983C51.068,292.447,39.786,303.729,25.034,303.729z M25.034,26.034
		c-5.207,0-8.678,3.471-8.678,8.678v242.983c0,5.207,3.471,8.678,8.678,8.678s8.678-3.471,8.678-8.678V34.712
		C33.712,29.505,30.241,26.034,25.034,26.034z"/>
	<path d="M328.763,156.203c-28.637,0-52.068-23.43-52.068-52.068s23.431-52.068,52.068-52.068c28.637,0,52.068,23.431,52.068,52.068
		S357.4,156.203,328.763,156.203z M328.763,69.424c-19.092,0-34.712,15.62-34.712,34.712s15.62,34.712,34.712,34.712
		c19.092,0,34.712-15.62,34.712-34.712S347.854,69.424,328.763,69.424z"/>
	<path d="M286.241,104.136H42.39c-5.207,0-8.678-3.471-8.678-8.678V60.746c0-5.207,3.471-8.678,8.678-8.678h286.373
		c5.207,0,8.678,3.471,8.678,8.678s-3.471,8.678-8.678,8.678c-16.488,0-30.373,11.281-33.844,27.769
		C294.051,101.532,290.58,104.136,286.241,104.136z M51.068,86.78h228.231c2.603-6.075,6.075-12.149,10.414-17.356H51.068V86.78z"/>
	<path d="M328.763,503.322c-100.664,0-182.237-81.573-182.237-182.237s81.573-182.237,182.237-182.237S511,220.42,511,321.085
		S429.427,503.322,328.763,503.322z M328.763,156.203c-91.119,0-164.881,73.763-164.881,164.881s73.763,164.881,164.881,164.881
		s164.881-73.763,164.881-164.881S419.881,156.203,328.763,156.203z"/>
	<path d="M285.373,433.898c-14.753,0-26.034-11.281-26.034-26.034v-52.068c0-14.753,11.281-26.034,26.034-26.034
		c14.753,0,26.034,11.281,26.034,26.034v52.068C311.407,422.617,300.125,433.898,285.373,433.898z M285.373,347.119
		c-5.207,0-8.678,3.471-8.678,8.678v52.068c0,5.207,3.471,8.678,8.678,8.678c5.207,0,8.678-3.471,8.678-8.678v-52.068
		C294.051,350.59,290.58,347.119,285.373,347.119z"/>
	<path d="M389.508,433.898c-14.753,0-26.034-11.281-26.034-26.034v-52.068c0-14.753,11.281-26.034,26.034-26.034
		c14.753,0,26.034,11.281,26.034,26.034v52.068C415.542,422.617,404.261,433.898,389.508,433.898z M389.508,347.119
		c-5.207,0-8.678,3.471-8.678,8.678v52.068c0,5.207,3.471,8.678,8.678,8.678c5.207,0,8.678-3.471,8.678-8.678v-52.068
		C398.186,350.59,394.715,347.119,389.508,347.119z"/>
	<path d="M285.373,347.119c-5.207,0-8.678-3.471-8.678-8.678V225.627c0-5.207,3.471-8.678,8.678-8.678
		c5.207,0,8.678,3.471,8.678,8.678v112.814C294.051,343.647,290.58,347.119,285.373,347.119z"/>
	<path d="M285.373,303.729c-24.298,0-43.39-19.092-43.39-43.39v-34.712c0-5.207,3.471-8.678,8.678-8.678
		c5.207,0,8.678,3.471,8.678,8.678v34.712c0,14.753,11.281,26.034,26.034,26.034c14.753,0,26.034-11.281,26.034-26.034v-34.712
		c0-5.207,3.471-8.678,8.678-8.678s8.678,3.471,8.678,8.678v34.712C328.763,284.637,309.671,303.729,285.373,303.729z"/>
	<path d="M406.864,355.797h-2.603c-3.471,0-6.075-1.736-7.81-4.339c-3.471-5.207-11.281-5.207-14.753,0
		c-0.868,2.603-4.339,4.339-6.942,4.339h-2.603c-5.207,0-8.678-3.471-8.678-8.678V225.627c0-5.207,3.471-8.678,8.678-8.678
		c24.298,0,43.39,19.092,43.39,43.39v86.78C415.542,352.325,412.071,355.797,406.864,355.797z M389.508,329.763
		c2.603,0,6.075,0.868,8.678,1.736v-71.159c0-11.281-6.942-20.827-17.356-24.298v95.458
		C383.434,330.63,386.905,329.763,389.508,329.763z"/>
</g>
<g>
</g>
<g>
</g>
<g>
</g>
<g>
</g>
<g>
</g>
<g>
</g>
<g>
</g>
<g>
</g>
<g>
</g>
<g>
</g>
<g>
</g>
<g>
</g>
<g>
</g>
<g>
</g>
<g>
</g>
</svg>
