<?xml version="1.0" encoding="iso-8859-1"?>
<!-- Generator: Adobe Illustrator 19.0.0, SVG Export Plug-In . SVG Version: 6.00 Build 0)  -->
<svg version="1.1" id="Layer_1" xmlns="http://www.w3.org/2000/svg" xmlns:xlink="http://www.w3.org/1999/xlink" x="0px" y="0px"
	 viewBox="0 0 512 512" style="enable-background:new 0 0 512 512;" xml:space="preserve">
<path style="fill:#7CCC92;" d="M256,512C114.837,512,0,397.157,0,256S114.837,0,256,0s256,114.843,256,256S397.163,512,256,512z"/>
<path style="fill:#34B772;" d="M512,256C512,114.843,397.163,0,256,0v512C397.163,512,512,397.157,512,256z"/>
<path style="fill:#D0D5E5;" d="M426.761,261.011c2.381-8.908-2.902-18.06-11.804-20.445l-45.619-12.222
	c-8.853-2.37-18.323,3.091-20.457,11.804l-12.218,45.614c-2.381,8.908,2.902,18.06,11.815,20.445
	c8.828,2.39,18.045-2.854,20.445-11.804l1.532-5.721l19.871,35.803c6.561,11.384-2.117,25.541-12.456,26.208H277.697
	c-9.217,0-16.696,8.141-16.696,17.363s7.479,15.917,16.696,15.917l101.173-0.032c37.201-2.231,58.935-44.013,40.51-75.905
	l-20.674-37.254l7.598,2.036C415.25,275.245,424.38,269.924,426.761,261.011z"/>
<g>
	<path style="fill:#DBE1F1;" d="M350.497,195.673c-7.903,4.563-18.143,1.892-22.706-6.122l-50.087-86.817
		c-4.117-6.122-14.024-7.903-21.704-4.341c-3.228,1.447-6.01,3.784-7.903,7.012l-21.037,35.172l5.787-1.558
		c8.904-2.337,18.032,2.894,20.37,11.798c2.449,8.904-2.894,18.031-11.799,20.48l-45.634,12.132
		c-8.682,2.337-17.81-2.56-20.37-11.798l-12.245-45.523c-2.449-8.904,2.894-18.141,11.799-20.48
		c8.904-2.449,18.032,2.894,20.481,11.798l2.002,7.569l21.927-36.508c8.125-14.136,22.038-22.372,36.619-24.598
		c18.698-2.894,38.734,4.007,50.087,21.37l50.532,87.597C361.294,180.87,358.511,190.998,350.497,195.673z"/>
	<path style="fill:#DBE1F1;" d="M223.282,344.37l-33.391-33.391c-6.521-6.521-17.087-6.521-23.609,0
		c-6.521,6.516-6.521,17.092,0,23.609l4.193,3.859l-40.943-0.026c-13.085,0-21.677-15.194-17.054-24.563l50.087-86.749
		c4.609-7.984,1.88-18.196-6.108-22.804c-7.967-4.615-18.196-1.891-22.804,6.108l-50.566,87.63
		c-16.662,33.337,9.327,73.435,46.152,73.435c0.011,0,0.011,0.111,0.011,0.111l42.593,0.055l-5.56,6.116
		c-6.521,6.516-6.521,17.092,0,23.609c6.522,6.522,17.086,6.522,23.609,0l33.258-33.258
		C229.925,361.548,229.695,350.582,223.282,344.37z"/>
</g>
<path style="fill:#D0D5E5;" d="M350.497,195.673c-7.903,4.563-18.143,1.892-22.706-6.122l-50.087-86.817
	c-4.117-6.122-14.024-7.903-21.704-4.341V63.889c18.698-2.894,38.734,4.007,50.087,21.37l50.532,87.597
	C361.294,180.87,358.511,190.998,350.497,195.673z"/>
<g>
</g>
<g>
</g>
<g>
</g>
<g>
</g>
<g>
</g>
<g>
</g>
<g>
</g>
<g>
</g>
<g>
</g>
<g>
</g>
<g>
</g>
<g>
</g>
<g>
</g>
<g>
</g>
<g>
</g>
</svg>
