<?xml version="1.0" encoding="iso-8859-1"?>
<!-- Generator: Adobe Illustrator 19.0.0, SVG Export Plug-In . SVG Version: 6.00 Build 0)  -->
<svg version="1.1" id="Layer_1" xmlns="http://www.w3.org/2000/svg" xmlns:xlink="http://www.w3.org/1999/xlink" x="0px" y="0px"
	 viewBox="0 0 512 512" style="enable-background:new 0 0 512 512;" xml:space="preserve">
<path style="fill:#FFB74A;" d="M256.001,283.145c-116.3,0-212.338,86.751-226.935,199.072c-0.979,7.532,1.336,15.119,6.352,20.822
	c5.016,5.703,12.246,8.96,19.841,8.96h401.485c7.589,0,14.807-3.271,19.819-8.969c5.012-5.699,7.352-13.287,6.374-20.813
	C468.339,369.896,372.301,283.145,256.001,283.145z"/>
<path style="fill:#FFC56E;" d="M256,283.146c-116.299,0-212.337,86.751-226.934,199.072c-0.979,7.532,1.336,15.119,6.352,20.821
	c5.016,5.703,12.246,8.96,19.841,8.96H256V283.146z"/>
<path style="fill:#DE9F40;" d="M364.161,310.313c-32.213-17.312-69.029-27.167-108.16-27.167s-75.947,9.856-108.16,27.167
	c25.411,37.761,64.406,61.96,108.16,61.96C299.755,372.273,338.751,348.074,364.161,310.313z"/>
<ellipse style="fill:#FFDBAC;" cx="256" cy="165.379" rx="138.644" ry="165.379"/>
<path style="fill:#FFEED9;" d="M256,0c-76.573,0-138.648,74.042-138.648,165.377S179.426,330.754,256,330.754V0z"/>
<path style="fill:#56412C;" d="M316.549,252.575H195.451v-31.237c0-10.366,8.403-18.771,18.771-18.771h83.558
	c10.366,0,18.771,8.403,18.771,18.771v31.237H316.549z"/>
<path style="fill:#876746;" d="M256,202.569h-41.778c-10.366,0-18.771,8.403-18.771,18.769v31.237H256V202.569z"/>
<g>
</g>
<g>
</g>
<g>
</g>
<g>
</g>
<g>
</g>
<g>
</g>
<g>
</g>
<g>
</g>
<g>
</g>
<g>
</g>
<g>
</g>
<g>
</g>
<g>
</g>
<g>
</g>
<g>
</g>
</svg>
