<?xml version="1.0" encoding="iso-8859-1"?>
<!-- Generator: Adobe Illustrator 18.0.0, SVG Export Plug-In . SVG Version: 6.00 Build 0)  -->
<!DOCTYPE svg PUBLIC "-//W3C//DTD SVG 1.1//EN" "http://www.w3.org/Graphics/SVG/1.1/DTD/svg11.dtd">
<svg version="1.1" id="Capa_1" xmlns="http://www.w3.org/2000/svg" xmlns:xlink="http://www.w3.org/1999/xlink" x="0px" y="0px"
	 viewBox="0 0 512 512" style="enable-background:new 0 0 512 512;" xml:space="preserve">
<path d="M480,240v-48c0-17.674-14.328-32-32-32H96c-17.648,0-32-14.352-32-32s14.352-32,32-32h352c17.672,0,32-14.328,32-32
	s-14.328-32-32-32H96C43.062,32,0,75.063,0,128v32v256c0,35.346,28.656,64,64,64h384c17.672,0,32-14.326,32-32v-48
	c17.672,0,32-14.326,32-32v-96C512,254.326,497.672,240,480,240z M432,352c-17.672,0-32-14.326-32-32s14.328-32,32-32
	c17.672,0,32,14.326,32,32S449.672,352,432,352z"/>
<g>
</g>
<g>
</g>
<g>
</g>
<g>
</g>
<g>
</g>
<g>
</g>
<g>
</g>
<g>
</g>
<g>
</g>
<g>
</g>
<g>
</g>
<g>
</g>
<g>
</g>
<g>
</g>
<g>
</g>
</svg>
